#!OML:ASF F:\twosubjects\two\wednesday\Session 1\rory1.ASF
:FULLY-SPECIFIED
:DEGREES
146
root 16.6703 18.1466 7.98404 -0.88165 -2.01368 -1.41081
lowerback 0.782572 2.16442 -0.277214
upperback 0.353004 2.88338 -0.279783
thorax -0.0761821 1.44159 -0.155041
lowerneck -9.92182 -4.52975 -5.5146
upperneck 12.6731 -5.92926 4.54409
head 5.75987 -2.82966 1.85142
rclavicle 1.11708e-014 3.97569e-015
rhumerus -22.764 -39.4974 -80.3425
rradius 15.191
rwrist 12.4881
rhand -15.9248 31.4026
rfingers 7.12502
rthumb 10.2727 1.67342
lclavicle 1.11708e-014 3.97569e-015
lhumerus -1.41334 -5.8589 84.3866
lradius 36.453
lwrist 25.5473
lhand -22.7057 16.3923
lfingers 7.12502
lthumb 3.72733 46.3395
rfemur 3.21205 8.00364 23.4839
rtibia 51.8958
rfoot 19.8284 9.72297
rtoes 3.80221
lfemur -28.6278 -1.35938 -18.9302
ltibia 36.9811
lfoot -8.52709 1.73638
ltoes -16.6312
147
root 16.7077 18.1821 8.15097 -0.743839 -2.38644 -0.680877
lowerback 0.610351 2.42307 -0.743117
upperback 0.253448 3.22559 -0.553762
thorax -0.0913465 1.61255 -0.172953
lowerneck -9.59123 -4.78357 -5.91945
upperneck 12.7364 -6.26656 4.78425
head 5.76199 -3.00075 1.96941
rclavicle -1.43218e-014 5.96354e-015
rhumerus -21.2543 -38.526 -81.3731
rradius 15.5971
rwrist 11.275
rhand -15.466 31.1589
rfingers 7.12502
rthumb 10.7152 1.45216
lclavicle -1.43218e-014 5.96354e-015
lhumerus -3.30596 -5.47355 85.1287
lradius 35.7791
lwrist 24.8261
lhand -23.0592 16.0259
lfingers 7.12502
lthumb 3.38589 45.9787
rfemur 1.00279 8.16479 22.2761
rtibia 54.8195
rfoot 17.8791 9.75383
rtoes 2.80197
lfemur -27.9117 -1.00212 -19.923
ltibia 36.7177
lfoot -9.16919 1.65575
ltoes -16.3682
148
root 16.7418 18.2191 8.31014 -0.838733 -2.34973 -0.092016
lowerback 0.850262 2.42332 -1.17721
upperback 0.172417 3.2177 -0.736769
thorax -0.321874 1.60942 -0.131867
lowerneck -9.48706 -4.86711 -6.01793
upperneck 12.9863 -6.36394 4.67416
head 5.82785 -3.06165 1.94285
rclavicle -9.2563e-015 -1.03368e-014
rhumerus -19.8626 -38.8298 -82.0888
rradius 15.9201
rwrist 11.7588
rhand -14.8311 30.8527
rfingers 7.12502
rthumb 11.3277 1.17863
lclavicle -9.2563e-015 -1.03368e-014
lhumerus -5.04251 -4.72049 85.6217
lradius 34.7472
lwrist 23.7996
lhand -20.8026 18.9872
lfingers 7.12502
lthumb 5.56491 48.8941
rfemur -1.02277 7.79754 21.273
rtibia 57.3839
rfoot 15.7835 10.1144
rtoes 0.446277
lfemur -27.0416 -0.758843 -20.7853
ltibia 36.4284
lfoot -9.64228 1.34982
ltoes -15.4455
149
root 16.7636 18.2471 8.47343 -1.15992 -2.19475 0.447286
lowerback 1.28027 2.34334 -1.71323
upperback 0.149108 3.09412 -0.91792
thorax -0.603975 1.54959 -0.0373517
lowerneck -9.50237 -4.80086 -5.82392
upperneck 13.4153 -6.28653 4.46124
head 5.94785 -3.02868 1.84839
rclavicle -5.76371e-014 1.47101e-014
rhumerus -18.5329 -40.2479 -82.7879
rradius 16.1152
rwrist 13.4243
rhand -14.3691 30.6055
rfingers 7.12502
rthumb 11.7732 0.956388
lclavicle -5.76371e-014 1.47101e-014
lhumerus -6.57475 -4.02348 85.8081
lradius 33.3205
lwrist 22.5776
lhand -20.0816 19.5385
lfingers 7.12502
lthumb 6.26102 49.4259
rfemur -2.60971 7.19438 20.3933
rtibia 59.6425
rfoot 13.5418 10.7697
rtoes -5.10955
lfemur -25.9429 -0.602344 -21.538
ltibia 36.1239
lfoot -10.0461 1.06083
ltoes -14.0827
150
root 16.7763 18.2647 8.63363 -1.49992 -2.19168 0.759656
lowerback 1.67446 2.40721 -2.13137
upperback 0.219322 3.16213 -0.974971
thorax -0.772923 1.58515 0.119017
lowerneck -9.67784 -4.86598 -5.84161
upperneck 13.8425 -6.36192 4.35712
head 6.11401 -3.07019 1.805
rclavicle -1.20366e-014 -7.55382e-015
rhumerus -16.6947 -39.8661 -83.8589
rradius 16.148
rwrist 13.3224
rhand -14.532 30.4617
rfingers 7.12502
rthumb 11.6161 0.80368
lclavicle -1.20366e-014 -7.55382e-015
lhumerus -7.83977 -3.21329 86.2129
lradius 31.7667
lwrist 21.0689
lhand -19.8273 19.4001
lfingers 7.12502
lthumb 6.50654 49.2801
rfemur -4.07565 6.6681 19.8161
rtibia 61.5434
rfoot 11.6984 10.4396
rtoes -7.92683
lfemur -24.8272 -0.240789 -22.0029
ltibia 35.8368
lfoot -10.4281 0.748981
ltoes -13.7371
